<?xml version="1.0" encoding="UTF-8" standalone="no"?>
<!DOCTYPE svg PUBLIC "-//W3C//DTD SVG 1.1//EN" "http://www.w3.org/Graphics/SVG/1.1/DTD/svg11.dtd">
<!-- Created with Inkscape (http://www.inkscape.org/) -->
<svg
   xmlns:svg="http://www.w3.org/2000/svg"
   xmlns="http://www.w3.org/2000/svg"
   xmlns:xlink="http://www.w3.org/1999/xlink"
   version="1.1"
   width="110"
   height="93.581741"
   id="svg2"
   xml:space="preserve"><defs
     id="defs5"><clipPath
       id="clipPath33"><path
         d="M 50.026,665.745 L 138.776,665.745 L 138.776,741.406 L 50.026,741.406 L 50.026,665.745 z"
         id="path35" /></clipPath><clipPath
       id="clipPath41"><path
         d="M 0,0 L 611.99994,0 L 611.99994,791.99994 L 0,791.99994 L 0,0 z"
         id="path43" /></clipPath><clipPath
       id="clipPath51"><path
         d="M -0.56229,-9.81796 L 6.33376,-9.81796 L 6.33376,0.67181 L -0.56229,0.67181 L -0.56229,-9.81796 z"
         id="path53" /></clipPath><linearGradient
       x1="0"
       y1="0"
       x2="0.88"
       y2="0"
       id="linearGradient137"
       gradientUnits="userSpaceOnUse"
       gradientTransform="matrix(0.31664,0,0,-0.10691,8.27e-2,-0.686)"
       spreadMethod="pad"><stop
         id="stop139"
         style="stop-color:#ffffff;stop-opacity:1"
         offset="0" /><stop
         id="stop141"
         style="stop-color:#215383;stop-opacity:1"
         offset="1" /></linearGradient><linearGradient
       x1="0"
       y1="0"
       x2="0.88"
       y2="0"
       id="linearGradient155"
       gradientUnits="userSpaceOnUse"
       gradientTransform="matrix(-0.34563,0,0,0.10691,0.9185,-0.7929)"
       spreadMethod="pad"><stop
         id="stop157"
         style="stop-color:#ffffff;stop-opacity:1"
         offset="0" /><stop
         id="stop159"
         style="stop-color:#215383;stop-opacity:1"
         offset="1" /></linearGradient><linearGradient
       x1="0"
       y1="0"
       x2="1"
       y2="0"
       id="linearGradient177"
       gradientUnits="userSpaceOnUse"
       gradientTransform="matrix(0,-0.31188,-0.82667,0,0.9049,-8.74e-2)"
       spreadMethod="pad"><stop
         id="stop179"
         style="stop-color:#ffffff;stop-opacity:1"
         offset="0" /><stop
         id="stop181"
         style="stop-color:#215383;stop-opacity:1"
         offset="1" /></linearGradient><linearGradient
       x1="0"
       y1="0"
       x2="0.88"
       y2="0"
       id="linearGradient2696"
       xlink:href="#linearGradient137"
       gradientUnits="userSpaceOnUse"
       gradientTransform="matrix(0.31664,0,0,-0.10691,8.27e-2,-0.686)"
       spreadMethod="pad" /><linearGradient
       x1="0"
       y1="0"
       x2="0.88"
       y2="0"
       id="linearGradient2698"
       xlink:href="#linearGradient155"
       gradientUnits="userSpaceOnUse"
       gradientTransform="matrix(-0.34563,0,0,0.10691,0.9185,-0.7929)"
       spreadMethod="pad" /><linearGradient
       x1="0"
       y1="0"
       x2="1"
       y2="0"
       id="linearGradient2700"
       xlink:href="#linearGradient177"
       gradientUnits="userSpaceOnUse"
       gradientTransform="matrix(0,-0.31188,-0.82667,0,0.9049,-8.74e-2)"
       spreadMethod="pad" /></defs><g
     transform="matrix(1.25,0,0,-1.25,-195.39082,741.57436)"
     id="g11"><g
       id="g15"><g
         transform="matrix(0.9915599,0,0,0.9915599,106.70794,-141.80897)"
         id="g29"><g
           clip-path="url(#clipPath33)"
           id="g31"><g
             id="g37"><g
               clip-path="url(#clipPath41)"
               id="g39"><g
                 transform="matrix(88.74651,0,0,75.50196,49.901,741.2759)"
                 id="g45"><g
                   id="g47"><g
                     clip-path="url(#clipPath51)"
                     id="g49"><path
                       d="M 0.0064,-0.9935 L 0.9965,-0.9935 L 0.9965,-0.0052 L 0.0064,-0.0052 L 0.0064,-0.9935 z"
                       id="path55"
                       style="fill:#ffffff;fill-opacity:1;fill-rule:nonzero;stroke:none" /><path
                       d="M 0.0064,-0.9935 L 0.9965,-0.9935 L 0.9965,-0.0052 L 0.0064,-0.0052 L 0.0064,-0.9935 z"
                       id="path57"
                       style="fill:none;stroke:#215483;stroke-width:0.0108;stroke-linecap:butt;stroke-linejoin:miter;stroke-miterlimit:4;stroke-dasharray:none;stroke-opacity:1" /><path
                       d="M 0.0604,-0.8907 L 0.0606,-0.9193 C 0.0606,-0.9262 0.0608,-0.9311 0.0612,-0.9341 C 0.0615,-0.937 0.0621,-0.9393 0.0629,-0.9408 L 0.0548,-0.9408 C 0.0557,-0.9393 0.0563,-0.9359 0.0568,-0.9306 C 0.0572,-0.9252 0.0574,-0.9174 0.0574,-0.9071 C 0.0574,-0.898 0.0572,-0.8921 0.0568,-0.8893 C 0.0564,-0.8866 0.0558,-0.8848 0.0548,-0.8839 L 0.0621,-0.8839 C 0.0634,-0.8839 0.0648,-0.8855 0.0664,-0.8886 C 0.0668,-0.8894 0.0671,-0.89 0.0673,-0.8905 C 0.0686,-0.8929 0.0706,-0.8968 0.0733,-0.9021 C 0.0796,-0.9145 0.0846,-0.924 0.0884,-0.9307 L 0.0885,-0.9058 C 0.0885,-0.8979 0.0883,-0.8925 0.0881,-0.8896 C 0.0878,-0.8868 0.0873,-0.8849 0.0866,-0.8839 L 0.0931,-0.8839 C 0.0925,-0.8847 0.092,-0.8869 0.0918,-0.8904 C 0.0915,-0.8939 0.0914,-0.901 0.0914,-0.9117 L 0.0914,-0.923 L 0.0914,-0.9411 L 0.0869,-0.9411 C 0.0854,-0.938 0.0816,-0.9307 0.0756,-0.9194 C 0.0695,-0.9081 0.0645,-0.8985 0.0604,-0.8907"
                       id="path59"
                       style="fill:#231f20;fill-opacity:1;fill-rule:nonzero;stroke:none" /><path
                       d="M 0.1157,-0.9258 C 0.1157,-0.9296 0.1152,-0.9323 0.1142,-0.9341 C 0.1132,-0.9359 0.1116,-0.9368 0.1095,-0.9368 C 0.1079,-0.9368 0.1066,-0.9362 0.1057,-0.9352 C 0.1047,-0.9341 0.1042,-0.9327 0.1042,-0.931 C 0.1042,-0.929 0.1048,-0.9272 0.1061,-0.9258 C 0.1074,-0.9243 0.1106,-0.9222 0.1157,-0.9196 L 0.1157,-0.9258 z M 0.123,-0.9408 C 0.1222,-0.9402 0.1216,-0.9387 0.1212,-0.9362 C 0.1208,-0.9337 0.1207,-0.9303 0.1207,-0.926 C 0.1207,-0.9226 0.1207,-0.919 0.1208,-0.9152 C 0.121,-0.9114 0.121,-0.9092 0.121,-0.9087 C 0.121,-0.9057 0.1204,-0.9035 0.119,-0.9022 C 0.1177,-0.9009 0.1155,-0.9002 0.1125,-0.9002 C 0.1085,-0.9002 0.1054,-0.901 0.103,-0.9024 C 0.1006,-0.9039 0.0994,-0.9058 0.0994,-0.908 C 0.0994,-0.909 0.0997,-0.9098 0.1001,-0.9104 C 0.1006,-0.911 0.1012,-0.9113 0.1019,-0.9113 C 0.1033,-0.9113 0.1044,-0.91 0.1052,-0.9074 C 0.1056,-0.9065 0.1058,-0.9058 0.106,-0.9055 C 0.1064,-0.9047 0.107,-0.9041 0.1077,-0.9037 C 0.1085,-0.9033 0.1093,-0.9031 0.1102,-0.9031 C 0.1122,-0.9031 0.1136,-0.9038 0.1145,-0.905 C 0.1155,-0.9063 0.1159,-0.9084 0.1159,-0.9112 C 0.1159,-0.9135 0.1156,-0.9151 0.115,-0.9161 C 0.1144,-0.9171 0.1127,-0.9184 0.1099,-0.9201 C 0.1051,-0.9228 0.102,-0.9249 0.1006,-0.9266 C 0.0992,-0.9283 0.0985,-0.9304 0.0985,-0.9327 C 0.0985,-0.9351 0.0994,-0.9373 0.1011,-0.9392 C 0.1028,-0.941 0.1048,-0.942 0.1072,-0.942 C 0.1091,-0.942 0.1108,-0.9413 0.1123,-0.9401 C 0.1138,-0.9388 0.115,-0.9369 0.1159,-0.9346 C 0.1159,-0.9359 0.116,-0.9371 0.1161,-0.9383 C 0.1163,-0.9394 0.1165,-0.9405 0.1168,-0.9414"
                       id="path61"
                       style="fill:#231f20;fill-opacity:1;fill-rule:nonzero;stroke:none" /><path
                       d="M 0.13,-0.9044 L 0.1267,-0.9043 L 0.1267,-0.9014 L 0.1301,-0.9011 L 0.1302,-0.8902 L 0.1352,-0.8882 L 0.135,-0.9011 L 0.1406,-0.9011 C 0.1409,-0.9011 0.141,-0.9011 0.1411,-0.9012 C 0.1412,-0.9012 0.1412,-0.9014 0.1412,-0.9016 C 0.1412,-0.9025 0.1407,-0.9032 0.1398,-0.9036 C 0.1388,-0.904 0.1374,-0.9043 0.1356,-0.9043 L 0.135,-0.9043 L 0.1347,-0.9277 L 0.1347,-0.9283 C 0.1347,-0.9314 0.135,-0.9335 0.1355,-0.9348 C 0.1361,-0.9361 0.137,-0.9368 0.1382,-0.9368 C 0.139,-0.9368 0.1396,-0.9365 0.1403,-0.9361 C 0.1409,-0.9357 0.1416,-0.935 0.1423,-0.934 L 0.1421,-0.9381 C 0.1413,-0.9393 0.1403,-0.9403 0.1391,-0.941 C 0.138,-0.9416 0.1368,-0.942 0.1355,-0.942 C 0.1336,-0.942 0.1321,-0.941 0.1311,-0.9391 C 0.1301,-0.9373 0.1296,-0.9345 0.1296,-0.9308 L 0.1296,-0.93"
                       id="path63"
                       style="fill:#231f20;fill-opacity:1;fill-rule:nonzero;stroke:none" /><path
                       d="M 0.1492,-0.8952 L 0.1464,-0.8891 L 0.1514,-0.8849 L 0.1544,-0.8911 L 0.1492,-0.8952 z M 0.1468,-0.9408 C 0.1473,-0.9403 0.1477,-0.9393 0.1479,-0.9378 C 0.1482,-0.9363 0.1483,-0.9336 0.1483,-0.9295 L 0.1483,-0.921 L 0.1483,-0.9161 C 0.1483,-0.9102 0.1482,-0.9063 0.1479,-0.9045 C 0.1477,-0.9027 0.1473,-0.9016 0.1468,-0.9012 C 0.1481,-0.9011 0.1494,-0.901 0.1505,-0.9009 C 0.1516,-0.9007 0.1527,-0.9005 0.1536,-0.9002 C 0.1535,-0.9016 0.1534,-0.9041 0.1534,-0.9078 C 0.1533,-0.9115 0.1533,-0.9171 0.1533,-0.9247 L 0.1533,-0.9297 C 0.1533,-0.9336 0.1534,-0.9363 0.1536,-0.9378 C 0.1538,-0.9392 0.1542,-0.9403 0.1548,-0.9408"
                       id="path65"
                       style="fill:#231f20;fill-opacity:1;fill-rule:nonzero;stroke:none" /><path
                       d="M 0.181,-0.9084 C 0.1828,-0.9117 0.1837,-0.916 0.1837,-0.9212 C 0.1837,-0.927 0.183,-0.9313 0.1816,-0.9343 C 0.1802,-0.9372 0.1782,-0.9386 0.1755,-0.9386 C 0.1725,-0.9386 0.17,-0.937 0.1682,-0.9336 C 0.1664,-0.9303 0.1655,-0.9257 0.1655,-0.92 C 0.1655,-0.9146 0.1662,-0.9106 0.1677,-0.9078 C 0.1692,-0.9049 0.1714,-0.9035 0.1742,-0.9035 C 0.177,-0.9035 0.1793,-0.9052 0.181,-0.9084 z M 0.1642,-0.9062 C 0.1614,-0.9101 0.1599,-0.9154 0.1599,-0.9219 C 0.1599,-0.9282 0.1612,-0.9332 0.1636,-0.9367 C 0.1661,-0.9402 0.1696,-0.942 0.174,-0.942 C 0.1787,-0.942 0.1823,-0.9399 0.1851,-0.9357 C 0.1878,-0.9316 0.1892,-0.9259 0.1892,-0.9189 C 0.1892,-0.913 0.188,-0.9085 0.1855,-0.9052 C 0.1831,-0.9019 0.1797,-0.9002 0.1754,-0.9002 C 0.1708,-0.9002 0.1671,-0.9022 0.1642,-0.9062"
                       id="path67"
                       style="fill:#231f20;fill-opacity:1;fill-rule:nonzero;stroke:none" /><path
                       d="M 0.1943,-0.9408 C 0.1948,-0.9403 0.1952,-0.9393 0.1954,-0.9378 C 0.1957,-0.9363 0.1958,-0.9336 0.1958,-0.9296 L 0.1958,-0.9211 L 0.1958,-0.9184 C 0.1958,-0.9119 0.1957,-0.9077 0.1954,-0.9057 C 0.1952,-0.9037 0.1948,-0.9025 0.1943,-0.902 L 0.2007,-0.9011 C 0.2007,-0.9018 0.2008,-0.9025 0.2009,-0.9033 C 0.201,-0.904 0.201,-0.9049 0.201,-0.9057 L 0.201,-0.9069 C 0.2023,-0.9045 0.2038,-0.9028 0.2053,-0.9018 C 0.2068,-0.9007 0.2086,-0.9002 0.2107,-0.9002 C 0.2135,-0.9002 0.2156,-0.9015 0.2167,-0.904 C 0.2178,-0.9065 0.2184,-0.9119 0.2184,-0.9204 L 0.2184,-0.9294 L 0.2184,-0.9319 C 0.2184,-0.935 0.2185,-0.9371 0.2187,-0.9382 C 0.2189,-0.9394 0.2193,-0.9402 0.2198,-0.9408 L 0.2131,-0.9408 C 0.2133,-0.9376 0.2133,-0.9342 0.2134,-0.9307 C 0.2134,-0.9271 0.2135,-0.9232 0.2135,-0.9188 L 0.2135,-0.9167 C 0.2135,-0.9117 0.213,-0.9086 0.2122,-0.9073 C 0.2113,-0.9059 0.2098,-0.9053 0.2076,-0.9053 C 0.2051,-0.9053 0.2033,-0.9062 0.2023,-0.908 C 0.2013,-0.9098 0.2008,-0.9141 0.2008,-0.9211 L 0.2008,-0.9296 C 0.2008,-0.9336 0.2009,-0.9363 0.2011,-0.9378 C 0.2013,-0.9393 0.2017,-0.9403 0.2023,-0.9408"
                       id="path69"
                       style="fill:#231f20;fill-opacity:1;fill-rule:nonzero;stroke:none" /><path
                       d="M 0.2412,-0.9258 C 0.2412,-0.9296 0.2407,-0.9323 0.2397,-0.9341 C 0.2387,-0.9359 0.2371,-0.9368 0.235,-0.9368 C 0.2334,-0.9368 0.2321,-0.9362 0.2311,-0.9352 C 0.2302,-0.9341 0.2297,-0.9327 0.2297,-0.931 C 0.2297,-0.929 0.2303,-0.9272 0.2316,-0.9258 C 0.2329,-0.9243 0.2361,-0.9222 0.2412,-0.9196 L 0.2412,-0.9258 z M 0.2485,-0.9408 C 0.2477,-0.9402 0.2471,-0.9387 0.2467,-0.9362 C 0.2463,-0.9337 0.2461,-0.9303 0.2461,-0.926 C 0.2461,-0.9226 0.2462,-0.919 0.2463,-0.9152 C 0.2464,-0.9114 0.2465,-0.9092 0.2465,-0.9087 C 0.2465,-0.9057 0.2458,-0.9035 0.2445,-0.9022 C 0.2432,-0.9009 0.241,-0.9002 0.238,-0.9002 C 0.234,-0.9002 0.2308,-0.901 0.2285,-0.9024 C 0.2261,-0.9039 0.2249,-0.9058 0.2249,-0.908 C 0.2249,-0.909 0.2251,-0.9098 0.2256,-0.9104 C 0.2261,-0.911 0.2267,-0.9113 0.2274,-0.9113 C 0.2288,-0.9113 0.2299,-0.91 0.2307,-0.9074 C 0.231,-0.9065 0.2313,-0.9058 0.2315,-0.9055 C 0.2319,-0.9047 0.2325,-0.9041 0.2332,-0.9037 C 0.2339,-0.9033 0.2347,-0.9031 0.2357,-0.9031 C 0.2376,-0.9031 0.2391,-0.9038 0.24,-0.905 C 0.2409,-0.9063 0.2414,-0.9084 0.2414,-0.9112 C 0.2414,-0.9135 0.2411,-0.9151 0.2405,-0.9161 C 0.2399,-0.9171 0.2382,-0.9184 0.2353,-0.9201 C 0.2306,-0.9228 0.2275,-0.9249 0.2261,-0.9266 C 0.2247,-0.9283 0.224,-0.9304 0.224,-0.9327 C 0.224,-0.9351 0.2249,-0.9373 0.2266,-0.9392 C 0.2282,-0.941 0.2303,-0.942 0.2326,-0.942 C 0.2345,-0.942 0.2363,-0.9413 0.2378,-0.9401 C 0.2393,-0.9388 0.2405,-0.9369 0.2414,-0.9346 C 0.2414,-0.9359 0.2415,-0.9371 0.2416,-0.9383 C 0.2418,-0.9394 0.242,-0.9405 0.2423,-0.9414"
                       id="path71"
                       style="fill:#231f20;fill-opacity:1;fill-rule:nonzero;stroke:none" /><path
                       d="M 0.2535,-0.9408 C 0.2541,-0.9404 0.2545,-0.9392 0.2547,-0.9372 C 0.255,-0.9353 0.2551,-0.9319 0.2551,-0.927 C 0.2551,-0.9256 0.2551,-0.9231 0.255,-0.9193 C 0.255,-0.9156 0.255,-0.9125 0.255,-0.9101 L 0.255,-0.8965 C 0.255,-0.8902 0.2549,-0.886 0.2547,-0.8838 C 0.2545,-0.8817 0.2541,-0.8804 0.2535,-0.88 L 0.2604,-0.8786 C 0.2602,-0.8802 0.2601,-0.8843 0.2601,-0.8909 C 0.2601,-0.8974 0.26,-0.9079 0.26,-0.9224 L 0.26,-0.9294 C 0.26,-0.9335 0.2601,-0.9363 0.2604,-0.9378 C 0.2606,-0.9393 0.261,-0.9403 0.2615,-0.9408"
                       id="path73"
                       style="fill:#231f20;fill-opacity:1;fill-rule:nonzero;stroke:none" /><path
                       d="M 0.2846,-0.9386 L 0.2846,-0.929 C 0.2859,-0.9319 0.2877,-0.9341 0.2898,-0.9356 C 0.2919,-0.9372 0.2943,-0.9379 0.297,-0.9379 C 0.2996,-0.9379 0.3018,-0.9369 0.3034,-0.9349 C 0.3051,-0.9329 0.3059,-0.9303 0.3059,-0.9271 C 0.3059,-0.9247 0.3054,-0.9225 0.3042,-0.9207 C 0.3031,-0.9188 0.3012,-0.9169 0.2985,-0.9151 C 0.2983,-0.9149 0.298,-0.9147 0.2977,-0.9144 C 0.2899,-0.9089 0.286,-0.9034 0.286,-0.8977 C 0.286,-0.8934 0.2873,-0.8898 0.29,-0.887 C 0.2926,-0.8843 0.2961,-0.8829 0.3003,-0.8829 C 0.3017,-0.8829 0.3032,-0.8829 0.3049,-0.8831 C 0.3065,-0.8832 0.3074,-0.8832 0.3077,-0.8832 C 0.3078,-0.8832 0.308,-0.8832 0.3082,-0.8833 C 0.3085,-0.8833 0.3088,-0.8833 0.309,-0.8833 L 0.3107,-0.8833 L 0.3107,-0.8926 C 0.3098,-0.8907 0.3086,-0.8893 0.3071,-0.8883 C 0.3055,-0.8873 0.3037,-0.8868 0.3016,-0.8868 C 0.2987,-0.8868 0.2965,-0.8876 0.2948,-0.8892 C 0.2931,-0.8908 0.2923,-0.893 0.2923,-0.8958 C 0.2923,-0.8999 0.2953,-0.904 0.3014,-0.9081 C 0.3016,-0.9082 0.3018,-0.9083 0.3018,-0.9084 C 0.3057,-0.911 0.3084,-0.9135 0.31,-0.9161 C 0.3116,-0.9186 0.3124,-0.9215 0.3124,-0.9247 C 0.3124,-0.9295 0.3109,-0.9336 0.3079,-0.9369 C 0.3049,-0.9403 0.3012,-0.942 0.2967,-0.942 C 0.295,-0.942 0.2931,-0.9417 0.2911,-0.9411 C 0.2891,-0.9406 0.2869,-0.9397 0.2846,-0.9386"
                       id="path75"
                       style="fill:#231f20;fill-opacity:1;fill-rule:nonzero;stroke:none" /><path
                       d="M 0.3187,-0.9408 C 0.3192,-0.9403 0.3196,-0.9393 0.3198,-0.9378 C 0.3201,-0.9363 0.3202,-0.9336 0.3202,-0.9296 L 0.3202,-0.9211 L 0.3202,-0.9184 C 0.3202,-0.9119 0.3201,-0.9077 0.3198,-0.9057 C 0.3196,-0.9037 0.3192,-0.9025 0.3187,-0.902 L 0.3251,-0.9011 C 0.3252,-0.9018 0.3252,-0.9025 0.3253,-0.9033 C 0.3254,-0.904 0.3254,-0.9049 0.3254,-0.9057 L 0.3254,-0.9069 C 0.3267,-0.9045 0.3282,-0.9028 0.3297,-0.9018 C 0.3312,-0.9007 0.333,-0.9002 0.3351,-0.9002 C 0.338,-0.9002 0.34,-0.9015 0.3411,-0.904 C 0.3422,-0.9065 0.3428,-0.9119 0.3428,-0.9204 L 0.3428,-0.9294 L 0.3428,-0.9319 C 0.3428,-0.935 0.3429,-0.9371 0.3431,-0.9382 C 0.3433,-0.9394 0.3437,-0.9402 0.3443,-0.9408 L 0.3375,-0.9408 C 0.3377,-0.9376 0.3377,-0.9342 0.3378,-0.9307 C 0.3378,-0.9271 0.3379,-0.9232 0.3379,-0.9188 L 0.3379,-0.9167 C 0.3379,-0.9117 0.3374,-0.9086 0.3366,-0.9073 C 0.3357,-0.9059 0.3342,-0.9053 0.332,-0.9053 C 0.3295,-0.9053 0.3277,-0.9062 0.3267,-0.908 C 0.3257,-0.9098 0.3252,-0.9141 0.3252,-0.9211 L 0.3252,-0.9296 C 0.3252,-0.9336 0.3253,-0.9363 0.3255,-0.9378 C 0.3257,-0.9393 0.3261,-0.9403 0.3267,-0.9408"
                       id="path77"
                       style="fill:#231f20;fill-opacity:1;fill-rule:nonzero;stroke:none" /><path
                       d="M 0.3702,-0.9084 C 0.372,-0.9117 0.3729,-0.916 0.3729,-0.9212 C 0.3729,-0.927 0.3722,-0.9313 0.3708,-0.9343 C 0.3695,-0.9372 0.3674,-0.9386 0.3647,-0.9386 C 0.3617,-0.9386 0.3592,-0.937 0.3574,-0.9336 C 0.3556,-0.9303 0.3547,-0.9257 0.3547,-0.92 C 0.3547,-0.9146 0.3554,-0.9106 0.3569,-0.9078 C 0.3584,-0.9049 0.3606,-0.9035 0.3634,-0.9035 C 0.3662,-0.9035 0.3685,-0.9052 0.3702,-0.9084 z M 0.3534,-0.9062 C 0.3506,-0.9101 0.3492,-0.9154 0.3492,-0.9219 C 0.3492,-0.9282 0.3504,-0.9332 0.3529,-0.9367 C 0.3553,-0.9402 0.3588,-0.942 0.3632,-0.942 C 0.3679,-0.942 0.3716,-0.9399 0.3743,-0.9357 C 0.377,-0.9316 0.3784,-0.9259 0.3784,-0.9189 C 0.3784,-0.913 0.3772,-0.9085 0.3747,-0.9052 C 0.3723,-0.9019 0.3689,-0.9002 0.3646,-0.9002 C 0.36,-0.9002 0.3563,-0.9022 0.3534,-0.9062"
                       id="path79"
                       style="fill:#231f20;fill-opacity:1;fill-rule:nonzero;stroke:none" /><path
                       d="M 0.4072,-0.9412 C 0.4052,-0.9312 0.4037,-0.9237 0.4026,-0.9189 C 0.4016,-0.914 0.4008,-0.9106 0.4003,-0.9086 C 0.3991,-0.9148 0.3976,-0.9214 0.3958,-0.9286 C 0.394,-0.9358 0.393,-0.94 0.3927,-0.9412 L 0.3882,-0.9412 C 0.3863,-0.9267 0.3848,-0.9166 0.3837,-0.911 C 0.3826,-0.9054 0.3817,-0.9021 0.3808,-0.9011 L 0.3847,-0.9007 C 0.3851,-0.9006 0.3855,-0.9006 0.3858,-0.9005 C 0.3871,-0.9005 0.3885,-0.9074 0.39,-0.9211 C 0.3907,-0.9271 0.3913,-0.9319 0.3917,-0.9355 C 0.3938,-0.9283 0.3954,-0.922 0.3965,-0.9168 C 0.3976,-0.9116 0.3981,-0.9079 0.3981,-0.9057 C 0.3981,-0.9047 0.398,-0.9039 0.3979,-0.9031 C 0.3977,-0.9024 0.3974,-0.9017 0.3971,-0.9011 L 0.4054,-0.9011 C 0.4051,-0.9015 0.405,-0.902 0.4049,-0.9025 C 0.4047,-0.903 0.4047,-0.9035 0.4047,-0.9041 C 0.4047,-0.9057 0.4065,-0.9159 0.4103,-0.9349 C 0.4103,-0.9352 0.4103,-0.9354 0.4104,-0.9355 C 0.412,-0.9278 0.4133,-0.9214 0.414,-0.9165 C 0.4148,-0.9115 0.4152,-0.9076 0.4152,-0.9047 C 0.4152,-0.9039 0.4151,-0.9032 0.4149,-0.9027 C 0.4148,-0.9021 0.4146,-0.9015 0.4143,-0.9011 L 0.4207,-0.9011 C 0.4197,-0.9029 0.4185,-0.9067 0.4172,-0.9124 C 0.4158,-0.9182 0.414,-0.9278 0.4116,-0.9412"
                       id="path81"
                       style="fill:#231f20;fill-opacity:1;fill-rule:nonzero;stroke:none" /><path
                       d="M 0.4569,-0.9258 C 0.4569,-0.9296 0.4564,-0.9323 0.4554,-0.9341 C 0.4543,-0.9359 0.4528,-0.9368 0.4507,-0.9368 C 0.4491,-0.9368 0.4478,-0.9362 0.4468,-0.9352 C 0.4458,-0.9341 0.4453,-0.9327 0.4453,-0.931 C 0.4453,-0.929 0.446,-0.9272 0.4473,-0.9258 C 0.4486,-0.9243 0.4518,-0.9222 0.4569,-0.9196 L 0.4569,-0.9258 z M 0.4641,-0.9408 C 0.4634,-0.9402 0.4628,-0.9387 0.4624,-0.9362 C 0.462,-0.9337 0.4618,-0.9303 0.4618,-0.926 C 0.4618,-0.9226 0.4619,-0.919 0.462,-0.9152 C 0.4621,-0.9114 0.4622,-0.9092 0.4622,-0.9087 C 0.4622,-0.9057 0.4615,-0.9035 0.4602,-0.9022 C 0.4588,-0.9009 0.4567,-0.9002 0.4536,-0.9002 C 0.4497,-0.9002 0.4465,-0.901 0.4441,-0.9024 C 0.4418,-0.9039 0.4406,-0.9058 0.4406,-0.908 C 0.4406,-0.909 0.4408,-0.9098 0.4413,-0.9104 C 0.4417,-0.911 0.4423,-0.9113 0.4431,-0.9113 C 0.4444,-0.9113 0.4455,-0.91 0.4464,-0.9074 C 0.4467,-0.9065 0.4469,-0.9058 0.4471,-0.9055 C 0.4476,-0.9047 0.4481,-0.9041 0.4489,-0.9037 C 0.4496,-0.9033 0.4504,-0.9031 0.4513,-0.9031 C 0.4533,-0.9031 0.4548,-0.9038 0.4557,-0.905 C 0.4566,-0.9063 0.4571,-0.9084 0.4571,-0.9112 C 0.4571,-0.9135 0.4568,-0.9151 0.4561,-0.9161 C 0.4555,-0.9171 0.4538,-0.9184 0.451,-0.9201 C 0.4463,-0.9228 0.4432,-0.9249 0.4418,-0.9266 C 0.4404,-0.9283 0.4397,-0.9304 0.4397,-0.9327 C 0.4397,-0.9351 0.4405,-0.9373 0.4422,-0.9392 C 0.4439,-0.941 0.4459,-0.942 0.4483,-0.942 C 0.4502,-0.942 0.4519,-0.9413 0.4534,-0.9401 C 0.4549,-0.9388 0.4561,-0.9369 0.457,-0.9346 C 0.457,-0.9359 0.4571,-0.9371 0.4573,-0.9383 C 0.4574,-0.9394 0.4576,-0.9405 0.4579,-0.9414"
                       id="path83"
                       style="fill:#231f20;fill-opacity:1;fill-rule:nonzero;stroke:none" /><path
                       d="M 0.4692,-0.9408 C 0.4697,-0.9403 0.4701,-0.9393 0.4703,-0.9378 C 0.4706,-0.9363 0.4707,-0.9336 0.4707,-0.9296 L 0.4707,-0.9211 L 0.4707,-0.9184 C 0.4707,-0.9119 0.4706,-0.9077 0.4703,-0.9057 C 0.4701,-0.9037 0.4697,-0.9025 0.4692,-0.902 L 0.4755,-0.9011 C 0.4756,-0.9018 0.4757,-0.9025 0.4758,-0.9033 C 0.4759,-0.904 0.4759,-0.9049 0.4759,-0.9057 L 0.4759,-0.9069 C 0.4772,-0.9045 0.4787,-0.9028 0.4802,-0.9018 C 0.4817,-0.9007 0.4835,-0.9002 0.4856,-0.9002 C 0.4884,-0.9002 0.4905,-0.9015 0.4916,-0.904 C 0.4927,-0.9065 0.4933,-0.9119 0.4933,-0.9204 L 0.4933,-0.9294 L 0.4933,-0.9319 C 0.4933,-0.935 0.4934,-0.9371 0.4936,-0.9382 C 0.4938,-0.9394 0.4942,-0.9402 0.4947,-0.9408 L 0.488,-0.9408 C 0.4881,-0.9376 0.4882,-0.9342 0.4883,-0.9307 C 0.4883,-0.9271 0.4884,-0.9232 0.4884,-0.9188 L 0.4884,-0.9167 C 0.4884,-0.9117 0.4879,-0.9086 0.4871,-0.9073 C 0.4862,-0.9059 0.4847,-0.9053 0.4825,-0.9053 C 0.48,-0.9053 0.4782,-0.9062 0.4772,-0.908 C 0.4762,-0.9098 0.4757,-0.9141 0.4757,-0.9211 L 0.4757,-0.9296 C 0.4757,-0.9336 0.4758,-0.9363 0.476,-0.9378 C 0.4762,-0.9393 0.4766,-0.9403 0.4772,-0.9408"
                       id="path85"
                       style="fill:#231f20;fill-opacity:1;fill-rule:nonzero;stroke:none" /><path
                       d="M 0.5079,-0.9327 C 0.5061,-0.9298 0.5052,-0.9259 0.5052,-0.9211 C 0.5052,-0.9156 0.5062,-0.9113 0.5083,-0.9081 C 0.5104,-0.905 0.5132,-0.9034 0.5168,-0.9034 C 0.518,-0.9034 0.5188,-0.9036 0.5195,-0.9039 C 0.5202,-0.9043 0.5206,-0.9049 0.5208,-0.9056 C 0.521,-0.9062 0.5211,-0.9076 0.5212,-0.9098 C 0.5213,-0.9119 0.5213,-0.917 0.5213,-0.9249 C 0.5213,-0.9298 0.5208,-0.933 0.5199,-0.9347 C 0.5189,-0.9364 0.5173,-0.9372 0.515,-0.9372 C 0.5121,-0.9372 0.5097,-0.9357 0.5079,-0.9327 z M 0.5202,-0.8799 C 0.5206,-0.8808 0.5209,-0.882 0.5211,-0.8836 C 0.5213,-0.8852 0.5214,-0.8876 0.5214,-0.891 L 0.5214,-0.9004 C 0.5209,-0.9003 0.5204,-0.9003 0.5199,-0.9003 C 0.5194,-0.9002 0.5188,-0.9002 0.5181,-0.9002 C 0.5123,-0.9002 0.5078,-0.9022 0.5046,-0.9062 C 0.5013,-0.9102 0.4996,-0.9156 0.4996,-0.9225 C 0.4996,-0.9284 0.5008,-0.9331 0.503,-0.9366 C 0.5053,-0.9402 0.5083,-0.942 0.5119,-0.942 C 0.5139,-0.942 0.5157,-0.9415 0.5173,-0.9405 C 0.5189,-0.9395 0.5201,-0.9382 0.5211,-0.9364 L 0.5211,-0.9375 C 0.5211,-0.9381 0.5211,-0.9388 0.5212,-0.9394 C 0.5212,-0.94 0.5213,-0.9407 0.5214,-0.9414 L 0.5278,-0.9408 C 0.5271,-0.9401 0.5267,-0.9386 0.5264,-0.9362 C 0.5262,-0.9338 0.5261,-0.9282 0.5261,-0.9193 C 0.5261,-0.91 0.5262,-0.9016 0.5264,-0.8941 C 0.5266,-0.8866 0.5268,-0.8814 0.5271,-0.8786"
                       id="path87"
                       style="fill:#231f20;fill-opacity:1;fill-rule:nonzero;stroke:none" /><path
                       d="M 0.5525,-0.9408 C 0.5531,-0.9399 0.5536,-0.9379 0.5538,-0.9348 C 0.5541,-0.9317 0.5542,-0.925 0.5542,-0.9148 L 0.5542,-0.9112 C 0.5542,-0.9 0.5541,-0.8929 0.5538,-0.8898 C 0.5536,-0.8867 0.5531,-0.8848 0.5525,-0.8839 L 0.5619,-0.8839 C 0.5612,-0.8847 0.5608,-0.8867 0.5605,-0.8897 C 0.5603,-0.8927 0.5601,-0.8991 0.5601,-0.9089 L 0.5601,-0.9123 L 0.5601,-0.9158 C 0.5601,-0.9256 0.5603,-0.932 0.5605,-0.935 C 0.5608,-0.938 0.5612,-0.94 0.5619,-0.9408"
                       id="path89"
                       style="fill:#231f20;fill-opacity:1;fill-rule:nonzero;stroke:none" /><path
                       d="M 0.5922,-0.9321 L 0.5922,-0.9323 C 0.5922,-0.9352 0.5913,-0.9376 0.5894,-0.9393 C 0.5876,-0.9411 0.5851,-0.942 0.5821,-0.942 C 0.578,-0.942 0.5747,-0.9401 0.572,-0.9363 C 0.5693,-0.9326 0.568,-0.9278 0.568,-0.9219 C 0.568,-0.9155 0.5695,-0.9103 0.5725,-0.9063 C 0.5756,-0.9022 0.5795,-0.9002 0.5843,-0.9002 C 0.5856,-0.9002 0.5867,-0.9003 0.5878,-0.9005 C 0.5889,-0.9007 0.59,-0.9009 0.591,-0.9013 L 0.5907,-0.9106 C 0.5901,-0.9082 0.5893,-0.9064 0.5881,-0.9052 C 0.587,-0.904 0.5856,-0.9034 0.5839,-0.9034 C 0.5809,-0.9034 0.5784,-0.905 0.5765,-0.9083 C 0.5746,-0.9116 0.5736,-0.916 0.5736,-0.9214 C 0.5736,-0.926 0.5746,-0.9298 0.5765,-0.9327 C 0.5784,-0.9356 0.5808,-0.9371 0.5838,-0.9371 C 0.5856,-0.9371 0.5872,-0.9366 0.5886,-0.9358 C 0.5901,-0.9349 0.5913,-0.9337 0.5922,-0.9321"
                       id="path91"
                       style="fill:#231f20;fill-opacity:1;fill-rule:nonzero;stroke:none" /><path
                       d="M 0.6048,-0.9059 C 0.6061,-0.9041 0.6077,-0.9033 0.6096,-0.9033 C 0.6112,-0.9033 0.6125,-0.9039 0.6136,-0.9052 C 0.6147,-0.9065 0.6152,-0.908 0.6152,-0.9098 C 0.6152,-0.9109 0.6149,-0.9117 0.6142,-0.9122 C 0.6134,-0.9126 0.6116,-0.9128 0.6086,-0.9128 L 0.6077,-0.9128 C 0.6067,-0.9128 0.6057,-0.9128 0.6047,-0.9127 C 0.6037,-0.9126 0.6032,-0.9126 0.6031,-0.9126 L 0.6025,-0.9126 C 0.6027,-0.9099 0.6035,-0.9076 0.6048,-0.9059 z M 0.6163,-0.9351 C 0.6148,-0.9359 0.6133,-0.9363 0.6116,-0.9363 C 0.6086,-0.9363 0.6061,-0.9349 0.6043,-0.932 C 0.6025,-0.9292 0.6016,-0.9252 0.6016,-0.9203 C 0.6016,-0.9193 0.6016,-0.9184 0.6017,-0.9176 C 0.6018,-0.9168 0.6019,-0.916 0.6021,-0.9152 C 0.6029,-0.9153 0.6038,-0.9153 0.6047,-0.9153 C 0.6057,-0.9154 0.607,-0.9154 0.6087,-0.9154 C 0.6144,-0.9154 0.6179,-0.9152 0.6191,-0.9147 C 0.6203,-0.9142 0.6209,-0.9133 0.6209,-0.9119 C 0.6209,-0.9085 0.6199,-0.9057 0.6179,-0.9035 C 0.6159,-0.9013 0.6133,-0.9002 0.6102,-0.9002 C 0.6058,-0.9002 0.6024,-0.9021 0.5998,-0.9059 C 0.5972,-0.9097 0.5959,-0.9148 0.5959,-0.9212 C 0.5959,-0.9276 0.5972,-0.9326 0.5996,-0.9364 C 0.6021,-0.9401 0.6053,-0.942 0.6094,-0.942 C 0.6123,-0.942 0.6148,-0.9409 0.6171,-0.9389 C 0.6193,-0.9369 0.6204,-0.9347 0.6204,-0.9323 L 0.6204,-0.9313 C 0.6191,-0.933 0.6177,-0.9342 0.6163,-0.9351"
                       id="path93"
                       style="fill:#231f20;fill-opacity:1;fill-rule:nonzero;stroke:none" /><path
                       d="M 0.6564,-0.8869 C 0.6576,-0.8867 0.6587,-0.8866 0.66,-0.8866 C 0.6659,-0.8866 0.6705,-0.8889 0.6737,-0.8934 C 0.6769,-0.8979 0.6786,-0.9043 0.6786,-0.9126 C 0.6786,-0.9205 0.677,-0.9266 0.674,-0.931 C 0.6709,-0.9353 0.6666,-0.9375 0.6609,-0.9375 C 0.6579,-0.9375 0.6559,-0.9372 0.6548,-0.9367 C 0.6537,-0.9362 0.6531,-0.9352 0.653,-0.9338 C 0.6529,-0.9327 0.6528,-0.931 0.6527,-0.9284 C 0.6527,-0.9258 0.6526,-0.9226 0.6526,-0.9188 L 0.6526,-0.9058 C 0.6526,-0.9008 0.6527,-0.8968 0.6528,-0.8939 C 0.6528,-0.891 0.653,-0.8889 0.6532,-0.8875 C 0.6542,-0.8872 0.6553,-0.887 0.6564,-0.8869 z M 0.6497,-0.9408 C 0.6507,-0.9408 0.6525,-0.9409 0.6551,-0.941 C 0.6577,-0.9412 0.6599,-0.9412 0.6615,-0.9412 C 0.6689,-0.9412 0.6748,-0.9384 0.6791,-0.9328 C 0.6834,-0.9271 0.6856,-0.9194 0.6856,-0.9097 C 0.6856,-0.9014 0.6838,-0.8948 0.6802,-0.8901 C 0.6765,-0.8853 0.6716,-0.8829 0.6653,-0.8829 C 0.6639,-0.8829 0.6615,-0.8831 0.6581,-0.8834 C 0.6547,-0.8837 0.652,-0.8839 0.65,-0.8839 L 0.645,-0.8839 C 0.6456,-0.8848 0.6461,-0.8867 0.6463,-0.8898 C 0.6466,-0.8929 0.6467,-0.9 0.6467,-0.9111 L 0.6467,-0.9148 C 0.6467,-0.925 0.6466,-0.9317 0.6463,-0.9348 C 0.6461,-0.9379 0.6456,-0.9399 0.645,-0.9408"
                       id="path95"
                       style="fill:#231f20;fill-opacity:1;fill-rule:nonzero;stroke:none" /><path
                       d="M 0.7067,-0.9258 C 0.7067,-0.9296 0.7062,-0.9323 0.7051,-0.9341 C 0.7041,-0.9359 0.7026,-0.9368 0.7005,-0.9368 C 0.6989,-0.9368 0.6976,-0.9362 0.6966,-0.9352 C 0.6956,-0.9341 0.6951,-0.9327 0.6951,-0.931 C 0.6951,-0.929 0.6958,-0.9272 0.6971,-0.9258 C 0.6983,-0.9243 0.7016,-0.9222 0.7067,-0.9196 L 0.7067,-0.9258 z M 0.7139,-0.9408 C 0.7131,-0.9402 0.7126,-0.9387 0.7122,-0.9362 C 0.7118,-0.9337 0.7116,-0.9303 0.7116,-0.926 C 0.7116,-0.9226 0.7116,-0.919 0.7118,-0.9152 C 0.7119,-0.9114 0.7119,-0.9092 0.7119,-0.9087 C 0.7119,-0.9057 0.7113,-0.9035 0.71,-0.9022 C 0.7086,-0.9009 0.7064,-0.9002 0.7034,-0.9002 C 0.6995,-0.9002 0.6963,-0.901 0.6939,-0.9024 C 0.6915,-0.9039 0.6904,-0.9058 0.6904,-0.908 C 0.6904,-0.909 0.6906,-0.9098 0.691,-0.9104 C 0.6915,-0.911 0.6921,-0.9113 0.6929,-0.9113 C 0.6942,-0.9113 0.6953,-0.91 0.6962,-0.9074 C 0.6965,-0.9065 0.6967,-0.9058 0.6969,-0.9055 C 0.6973,-0.9047 0.6979,-0.9041 0.6987,-0.9037 C 0.6994,-0.9033 0.7002,-0.9031 0.7011,-0.9031 C 0.7031,-0.9031 0.7045,-0.9038 0.7055,-0.905 C 0.7064,-0.9063 0.7068,-0.9084 0.7068,-0.9112 C 0.7068,-0.9135 0.7065,-0.9151 0.7059,-0.9161 C 0.7053,-0.9171 0.7036,-0.9184 0.7008,-0.9201 C 0.696,-0.9228 0.693,-0.9249 0.6916,-0.9266 C 0.6902,-0.9283 0.6895,-0.9304 0.6895,-0.9327 C 0.6895,-0.9351 0.6903,-0.9373 0.692,-0.9392 C 0.6937,-0.941 0.6957,-0.942 0.6981,-0.942 C 0.7,-0.942 0.7017,-0.9413 0.7032,-0.9401 C 0.7047,-0.9388 0.7059,-0.9369 0.7068,-0.9346 C 0.7068,-0.9359 0.7069,-0.9371 0.7071,-0.9383 C 0.7072,-0.9394 0.7074,-0.9405 0.7077,-0.9414"
                       id="path97"
                       style="fill:#231f20;fill-opacity:1;fill-rule:nonzero;stroke:none" /><path
                       d="M 0.7209,-0.9044 L 0.7176,-0.9043 L 0.7176,-0.9014 L 0.721,-0.9011 L 0.7211,-0.8902 L 0.7262,-0.8882 L 0.7259,-0.9011 L 0.7316,-0.9011 C 0.7318,-0.9011 0.732,-0.9011 0.732,-0.9012 C 0.7321,-0.9012 0.7321,-0.9014 0.7321,-0.9016 C 0.7321,-0.9025 0.7316,-0.9032 0.7307,-0.9036 C 0.7298,-0.904 0.7284,-0.9043 0.7265,-0.9043 L 0.7259,-0.9043 L 0.7256,-0.9277 L 0.7256,-0.9283 C 0.7256,-0.9314 0.7259,-0.9335 0.7264,-0.9348 C 0.727,-0.9361 0.7279,-0.9368 0.7291,-0.9368 C 0.7299,-0.9368 0.7306,-0.9365 0.7312,-0.9361 C 0.7319,-0.9357 0.7325,-0.935 0.7332,-0.934 L 0.733,-0.9381 C 0.7322,-0.9393 0.7312,-0.9403 0.7301,-0.941 C 0.7289,-0.9416 0.7277,-0.942 0.7264,-0.942 C 0.7245,-0.942 0.723,-0.941 0.7221,-0.9391 C 0.7211,-0.9373 0.7206,-0.9345 0.7206,-0.9308 L 0.7206,-0.93"
                       id="path99"
                       style="fill:#231f20;fill-opacity:1;fill-rule:nonzero;stroke:none" /><path
                       d="M 0.7532,-0.9258 C 0.7532,-0.9296 0.7527,-0.9323 0.7517,-0.9341 C 0.7507,-0.9359 0.7491,-0.9368 0.747,-0.9368 C 0.7454,-0.9368 0.7441,-0.9362 0.7431,-0.9352 C 0.7421,-0.9341 0.7416,-0.9327 0.7416,-0.931 C 0.7416,-0.929 0.7423,-0.9272 0.7436,-0.9258 C 0.7449,-0.9243 0.7481,-0.9222 0.7532,-0.9196 L 0.7532,-0.9258 z M 0.7604,-0.9408 C 0.7597,-0.9402 0.7591,-0.9387 0.7587,-0.9362 C 0.7583,-0.9337 0.7581,-0.9303 0.7581,-0.926 C 0.7581,-0.9226 0.7582,-0.919 0.7583,-0.9152 C 0.7584,-0.9114 0.7585,-0.9092 0.7585,-0.9087 C 0.7585,-0.9057 0.7578,-0.9035 0.7565,-0.9022 C 0.7552,-0.9009 0.753,-0.9002 0.75,-0.9002 C 0.746,-0.9002 0.7428,-0.901 0.7404,-0.9024 C 0.7381,-0.9039 0.7369,-0.9058 0.7369,-0.908 C 0.7369,-0.909 0.7371,-0.9098 0.7376,-0.9104 C 0.738,-0.911 0.7387,-0.9113 0.7394,-0.9113 C 0.7408,-0.9113 0.7419,-0.91 0.7427,-0.9074 C 0.743,-0.9065 0.7433,-0.9058 0.7434,-0.9055 C 0.7439,-0.9047 0.7445,-0.9041 0.7452,-0.9037 C 0.7459,-0.9033 0.7467,-0.9031 0.7476,-0.9031 C 0.7496,-0.9031 0.7511,-0.9038 0.752,-0.905 C 0.7529,-0.9063 0.7534,-0.9084 0.7534,-0.9112 C 0.7534,-0.9135 0.7531,-0.9151 0.7525,-0.9161 C 0.7519,-0.9171 0.7501,-0.9184 0.7473,-0.9201 C 0.7426,-0.9228 0.7395,-0.9249 0.7381,-0.9266 C 0.7367,-0.9283 0.736,-0.9304 0.736,-0.9327 C 0.736,-0.9351 0.7368,-0.9373 0.7385,-0.9392 C 0.7402,-0.941 0.7423,-0.942 0.7446,-0.942 C 0.7465,-0.942 0.7482,-0.9413 0.7497,-0.9401 C 0.7512,-0.9388 0.7524,-0.9369 0.7533,-0.9346 C 0.7534,-0.9359 0.7535,-0.9371 0.7536,-0.9383 C 0.7538,-0.9394 0.754,-0.9405 0.7542,-0.9414"
                       id="path101"
                       style="fill:#231f20;fill-opacity:1;fill-rule:nonzero;stroke:none" /><path
                       d="M 0.8166,-0.8839 L 0.8162,-0.8962 C 0.8152,-0.8931 0.8138,-0.8907 0.812,-0.8891 C 0.8103,-0.8876 0.8081,-0.8868 0.8056,-0.8868 C 0.8006,-0.8868 0.7968,-0.8889 0.794,-0.8931 C 0.7912,-0.8973 0.7898,-0.903 0.7898,-0.9104 C 0.7898,-0.918 0.7913,-0.9241 0.7944,-0.9286 C 0.7975,-0.9331 0.8016,-0.9353 0.8067,-0.9353 C 0.8091,-0.9353 0.8114,-0.9347 0.8135,-0.9335 C 0.8156,-0.9323 0.8175,-0.9306 0.819,-0.9284 C 0.8182,-0.9325 0.8164,-0.9358 0.8136,-0.9383 C 0.8108,-0.9407 0.8074,-0.942 0.8035,-0.942 C 0.7975,-0.942 0.7926,-0.9393 0.7888,-0.9339 C 0.7849,-0.9284 0.783,-0.9215 0.783,-0.913 C 0.783,-0.9036 0.7851,-0.8962 0.7892,-0.8909 C 0.7933,-0.8856 0.799,-0.8829 0.8063,-0.8829 C 0.8075,-0.8829 0.8092,-0.8831 0.8114,-0.8834 C 0.8137,-0.8838 0.8154,-0.8839 0.8166,-0.8839"
                       id="path103"
                       style="fill:#231f20;fill-opacity:1;fill-rule:nonzero;stroke:none" /><path
                       d="M 0.8321,-0.9059 C 0.8334,-0.9041 0.835,-0.9033 0.8369,-0.9033 C 0.8385,-0.9033 0.8398,-0.9039 0.8409,-0.9052 C 0.842,-0.9065 0.8425,-0.908 0.8425,-0.9098 C 0.8425,-0.9109 0.8422,-0.9117 0.8414,-0.9122 C 0.8407,-0.9126 0.8389,-0.9128 0.8359,-0.9128 L 0.835,-0.9128 C 0.834,-0.9128 0.833,-0.9128 0.832,-0.9127 C 0.831,-0.9126 0.8305,-0.9126 0.8304,-0.9126 L 0.8298,-0.9126 C 0.83,-0.9099 0.8308,-0.9076 0.8321,-0.9059 z M 0.8436,-0.9351 C 0.8421,-0.9359 0.8406,-0.9363 0.8389,-0.9363 C 0.8358,-0.9363 0.8334,-0.9349 0.8316,-0.932 C 0.8298,-0.9292 0.8289,-0.9252 0.8289,-0.9203 C 0.8289,-0.9193 0.8289,-0.9184 0.829,-0.9176 C 0.8291,-0.9168 0.8292,-0.916 0.8293,-0.9152 C 0.8302,-0.9153 0.8311,-0.9153 0.832,-0.9153 C 0.833,-0.9154 0.8343,-0.9154 0.836,-0.9154 C 0.8417,-0.9154 0.8452,-0.9152 0.8464,-0.9147 C 0.8476,-0.9142 0.8482,-0.9133 0.8482,-0.9119 C 0.8482,-0.9085 0.8472,-0.9057 0.8452,-0.9035 C 0.8432,-0.9013 0.8406,-0.9002 0.8375,-0.9002 C 0.8331,-0.9002 0.8297,-0.9021 0.8271,-0.9059 C 0.8245,-0.9097 0.8232,-0.9148 0.8232,-0.9212 C 0.8232,-0.9276 0.8244,-0.9326 0.8269,-0.9364 C 0.8293,-0.9401 0.8326,-0.942 0.8367,-0.942 C 0.8396,-0.942 0.8421,-0.9409 0.8444,-0.9389 C 0.8466,-0.9369 0.8477,-0.9347 0.8477,-0.9323 L 0.8477,-0.9313 C 0.8464,-0.933 0.845,-0.9342 0.8436,-0.9351"
                       id="path105"
                       style="fill:#231f20;fill-opacity:1;fill-rule:nonzero;stroke:none" /><path
                       d="M 0.8534,-0.9408 C 0.854,-0.9403 0.8544,-0.9393 0.8546,-0.9378 C 0.8548,-0.9363 0.8549,-0.9336 0.8549,-0.9296 L 0.8549,-0.9211 L 0.8549,-0.9184 C 0.8549,-0.9119 0.8548,-0.9077 0.8546,-0.9057 C 0.8544,-0.9037 0.854,-0.9025 0.8534,-0.902 L 0.8598,-0.9011 C 0.8599,-0.9018 0.86,-0.9025 0.86,-0.9033 C 0.8601,-0.904 0.8601,-0.9049 0.8601,-0.9057 L 0.8601,-0.9069 C 0.8615,-0.9045 0.8629,-0.9028 0.8645,-0.9018 C 0.866,-0.9007 0.8678,-0.9002 0.8698,-0.9002 C 0.8727,-0.9002 0.8747,-0.9015 0.8758,-0.904 C 0.877,-0.9065 0.8775,-0.9119 0.8775,-0.9204 L 0.8775,-0.9294 L 0.8775,-0.9319 C 0.8775,-0.935 0.8776,-0.9371 0.8778,-0.9382 C 0.8781,-0.9394 0.8784,-0.9402 0.879,-0.9408 L 0.8723,-0.9408 C 0.8724,-0.9376 0.8725,-0.9342 0.8725,-0.9307 C 0.8726,-0.9271 0.8726,-0.9232 0.8726,-0.9188 L 0.8726,-0.9167 C 0.8726,-0.9117 0.8722,-0.9086 0.8713,-0.9073 C 0.8705,-0.9059 0.8689,-0.9053 0.8668,-0.9053 C 0.8642,-0.9053 0.8625,-0.9062 0.8615,-0.908 C 0.8604,-0.9098 0.8599,-0.9141 0.8599,-0.9211 L 0.8599,-0.9296 C 0.8599,-0.9336 0.8601,-0.9363 0.8603,-0.9378 C 0.8605,-0.9393 0.8609,-0.9403 0.8614,-0.9408"
                       id="path107"
                       style="fill:#231f20;fill-opacity:1;fill-rule:nonzero;stroke:none" /><path
                       d="M 0.8868,-0.9044 L 0.8835,-0.9043 L 0.8835,-0.9014 L 0.8869,-0.9011 L 0.887,-0.8902 L 0.8921,-0.8882 L 0.8919,-0.9011 L 0.8975,-0.9011 C 0.8977,-0.9011 0.8979,-0.9011 0.8979,-0.9012 C 0.898,-0.9012 0.898,-0.9014 0.898,-0.9016 C 0.898,-0.9025 0.8976,-0.9032 0.8966,-0.9036 C 0.8957,-0.904 0.8943,-0.9043 0.8924,-0.9043 L 0.8919,-0.9043 L 0.8915,-0.9277 L 0.8915,-0.9283 C 0.8915,-0.9314 0.8918,-0.9335 0.8924,-0.9348 C 0.8929,-0.9361 0.8938,-0.9368 0.895,-0.9368 C 0.8958,-0.9368 0.8965,-0.9365 0.8971,-0.9361 C 0.8978,-0.9357 0.8984,-0.935 0.8991,-0.934 L 0.8989,-0.9381 C 0.8981,-0.9393 0.8971,-0.9403 0.896,-0.941 C 0.8948,-0.9416 0.8936,-0.942 0.8923,-0.942 C 0.8904,-0.942 0.889,-0.941 0.888,-0.9391 C 0.887,-0.9373 0.8865,-0.9345 0.8865,-0.9308 L 0.8865,-0.93"
                       id="path109"
                       style="fill:#231f20;fill-opacity:1;fill-rule:nonzero;stroke:none" /><path
                       d="M 0.9115,-0.9059 C 0.9129,-0.9041 0.9144,-0.9033 0.9163,-0.9033 C 0.9179,-0.9033 0.9192,-0.9039 0.9203,-0.9052 C 0.9214,-0.9065 0.9219,-0.908 0.9219,-0.9098 C 0.9219,-0.9109 0.9216,-0.9117 0.9209,-0.9122 C 0.9202,-0.9126 0.9183,-0.9128 0.9153,-0.9128 L 0.9144,-0.9128 C 0.9134,-0.9128 0.9125,-0.9128 0.9114,-0.9127 C 0.9104,-0.9126 0.9099,-0.9126 0.9098,-0.9126 L 0.9092,-0.9126 C 0.9094,-0.9099 0.9102,-0.9076 0.9115,-0.9059 z M 0.923,-0.9351 C 0.9215,-0.9359 0.92,-0.9363 0.9183,-0.9363 C 0.9153,-0.9363 0.9128,-0.9349 0.911,-0.932 C 0.9092,-0.9292 0.9083,-0.9252 0.9083,-0.9203 C 0.9083,-0.9193 0.9083,-0.9184 0.9084,-0.9176 C 0.9085,-0.9168 0.9086,-0.916 0.9088,-0.9152 C 0.9096,-0.9153 0.9105,-0.9153 0.9114,-0.9153 C 0.9124,-0.9154 0.9137,-0.9154 0.9154,-0.9154 C 0.9211,-0.9154 0.9246,-0.9152 0.9258,-0.9147 C 0.927,-0.9142 0.9276,-0.9133 0.9276,-0.9119 C 0.9276,-0.9085 0.9266,-0.9057 0.9246,-0.9035 C 0.9226,-0.9013 0.92,-0.9002 0.9169,-0.9002 C 0.9126,-0.9002 0.9091,-0.9021 0.9065,-0.9059 C 0.9039,-0.9097 0.9026,-0.9148 0.9026,-0.9212 C 0.9026,-0.9276 0.9039,-0.9326 0.9063,-0.9364 C 0.9088,-0.9401 0.912,-0.942 0.9161,-0.942 C 0.919,-0.942 0.9216,-0.9409 0.9238,-0.9389 C 0.926,-0.9369 0.9271,-0.9347 0.9271,-0.9323 L 0.9271,-0.9313 C 0.9258,-0.933 0.9244,-0.9342 0.923,-0.9351"
                       id="path111"
                       style="fill:#231f20;fill-opacity:1;fill-rule:nonzero;stroke:none" /><path
                       d="M 0.9329,-0.9408 C 0.9334,-0.9403 0.9338,-0.9393 0.934,-0.9378 C 0.9342,-0.9363 0.9343,-0.9336 0.9343,-0.9296 L 0.9343,-0.921 L 0.9343,-0.9183 C 0.9343,-0.9119 0.9342,-0.9077 0.934,-0.9057 C 0.9338,-0.9038 0.9334,-0.9025 0.9329,-0.902 C 0.9337,-0.9019 0.9347,-0.9016 0.936,-0.9014 C 0.9372,-0.9011 0.9379,-0.9009 0.9381,-0.9009 C 0.9388,-0.901 0.9391,-0.9022 0.9392,-0.9047 C 0.9392,-0.9054 0.9392,-0.906 0.9392,-0.9064 C 0.9403,-0.9043 0.9414,-0.9027 0.9426,-0.9017 C 0.9437,-0.9007 0.9451,-0.9002 0.9465,-0.9002 C 0.9476,-0.9002 0.9485,-0.9005 0.9492,-0.9012 C 0.9498,-0.9018 0.9502,-0.9026 0.9502,-0.9036 C 0.9502,-0.9044 0.95,-0.9051 0.9495,-0.9056 C 0.949,-0.906 0.9484,-0.9063 0.9475,-0.9063 C 0.9471,-0.9063 0.9466,-0.9062 0.9457,-0.9061 C 0.9449,-0.906 0.9443,-0.906 0.9438,-0.906 C 0.9419,-0.906 0.9407,-0.9068 0.9401,-0.9084 C 0.9395,-0.91 0.9392,-0.9138 0.9392,-0.9198 C 0.9392,-0.9207 0.9393,-0.9224 0.9393,-0.9249 C 0.9393,-0.9273 0.9393,-0.9294 0.9393,-0.931 C 0.9393,-0.9341 0.9394,-0.9364 0.9396,-0.9378 C 0.9398,-0.9393 0.9402,-0.9403 0.9407,-0.9408"
                       id="path113"
                       style="fill:#231f20;fill-opacity:1;fill-rule:nonzero;stroke:none" /><path
                       d="M 0.049,-0.8617 L 0.9511,-0.8617 L 0.9511,-0.0547 L 0.049,-0.0547 L 0.049,-0.8617 z"
                       id="path115"
                       style="fill:#215483;fill-opacity:1;fill-rule:nonzero;stroke:none" /><path
                       d="M 0.1235,-0.4431 L 0.1242,-0.5467 C 0.1243,-0.5715 0.1251,-0.5893 0.1263,-0.6 C 0.1276,-0.6107 0.1296,-0.6189 0.1325,-0.6244 L 0.1035,-0.6244 C 0.1068,-0.6191 0.1091,-0.6067 0.1106,-0.5873 C 0.1121,-0.568 0.1129,-0.5397 0.1129,-0.5025 C 0.1129,-0.4696 0.1122,-0.4482 0.1108,-0.4384 C 0.1095,-0.4285 0.107,-0.4219 0.1035,-0.4187 L 0.1296,-0.4187 C 0.1342,-0.4187 0.1394,-0.4243 0.1451,-0.4356 C 0.1465,-0.4385 0.1477,-0.4408 0.1486,-0.4425 C 0.1533,-0.4514 0.1605,-0.4654 0.1703,-0.4846 C 0.1928,-0.5292 0.2109,-0.5637 0.2247,-0.5879 L 0.2249,-0.498 C 0.2249,-0.4691 0.2245,-0.4496 0.2235,-0.4394 C 0.2225,-0.4293 0.2209,-0.4223 0.2185,-0.4187 L 0.2421,-0.4187 C 0.2397,-0.4216 0.2381,-0.4294 0.2371,-0.4421 C 0.2362,-0.4548 0.2358,-0.4805 0.2358,-0.5191 L 0.2358,-0.5602 L 0.2358,-0.6253 L 0.2196,-0.6253 C 0.2141,-0.6141 0.2004,-0.5879 0.1785,-0.547 C 0.1566,-0.5061 0.1382,-0.4714 0.1235,-0.4431"
                       id="path117"
                       style="fill:#ffffff;fill-opacity:1;fill-rule:nonzero;stroke:none" /><path
                       d="M 0.3025,-0.6163 L 0.3025,-0.581 C 0.3075,-0.5917 0.3138,-0.5999 0.3214,-0.6055 C 0.329,-0.6112 0.3376,-0.614 0.3473,-0.614 C 0.3569,-0.614 0.3647,-0.6103 0.3707,-0.603 C 0.3767,-0.5956 0.3797,-0.5863 0.3797,-0.5748 C 0.3797,-0.5659 0.3777,-0.5581 0.3737,-0.5512 C 0.3696,-0.5444 0.3628,-0.5377 0.3532,-0.531 C 0.3524,-0.5304 0.3514,-0.5297 0.35,-0.5286 C 0.322,-0.5088 0.308,-0.4887 0.308,-0.4683 C 0.308,-0.4525 0.3128,-0.4396 0.3223,-0.4296 C 0.3319,-0.4196 0.3443,-0.4146 0.3596,-0.4146 C 0.3646,-0.4146 0.37,-0.4149 0.3759,-0.4153 C 0.3817,-0.4157 0.3851,-0.4159 0.386,-0.4159 C 0.3864,-0.4159 0.3871,-0.4159 0.3881,-0.416 C 0.3891,-0.4161 0.39,-0.4162 0.3907,-0.4162 L 0.3969,-0.4162 L 0.3969,-0.4499 C 0.3938,-0.4429 0.3895,-0.4376 0.3838,-0.434 C 0.3781,-0.4303 0.3716,-0.4285 0.3641,-0.4285 C 0.3538,-0.4285 0.3456,-0.4315 0.3396,-0.4373 C 0.3336,-0.4432 0.3306,-0.4512 0.3306,-0.4611 C 0.3306,-0.476 0.3415,-0.4909 0.3634,-0.5059 C 0.3642,-0.5063 0.3648,-0.5066 0.3651,-0.5069 C 0.3788,-0.5163 0.3887,-0.5256 0.3945,-0.5348 C 0.4004,-0.544 0.4033,-0.5544 0.4033,-0.566 C 0.4033,-0.5833 0.3979,-0.598 0.3869,-0.6102 C 0.376,-0.6223 0.3625,-0.6284 0.3465,-0.6284 C 0.3401,-0.6284 0.3333,-0.6274 0.3261,-0.6255 C 0.3189,-0.6235 0.311,-0.6205 0.3025,-0.6163"
                       id="path119"
                       style="fill:#ffffff;fill-opacity:1;fill-rule:nonzero;stroke:none" /><path
                       d="M 0.4678,-0.6244 C 0.47,-0.6213 0.4715,-0.614 0.4724,-0.6028 C 0.4733,-0.5915 0.4737,-0.5674 0.4737,-0.5304 L 0.4737,-0.5172 C 0.4737,-0.4769 0.4733,-0.4512 0.4724,-0.4401 C 0.4715,-0.429 0.47,-0.4218 0.4678,-0.4187 L 0.5008,-0.4187 C 0.4986,-0.4217 0.4971,-0.4287 0.4962,-0.4395 C 0.4953,-0.4504 0.4949,-0.4735 0.4949,-0.5089 L 0.4949,-0.5215 L 0.4949,-0.5338 C 0.4949,-0.5693 0.4953,-0.5926 0.4962,-0.6035 C 0.4971,-0.6144 0.4986,-0.6214 0.5008,-0.6244"
                       id="path121"
                       style="fill:#ffffff;fill-opacity:1;fill-rule:nonzero;stroke:none" /><path
                       d="M 0.6097,-0.4294 C 0.6137,-0.4288 0.618,-0.4285 0.6224,-0.4285 C 0.6438,-0.4285 0.6603,-0.4367 0.6719,-0.4529 C 0.6835,-0.4692 0.6893,-0.4924 0.6893,-0.5225 C 0.6893,-0.5512 0.6838,-0.5734 0.6728,-0.5892 C 0.6617,-0.6049 0.6461,-0.6128 0.6259,-0.6128 C 0.615,-0.6128 0.6077,-0.6119 0.6038,-0.6101 C 0.6,-0.6083 0.5977,-0.6047 0.5971,-0.5993 C 0.5968,-0.5957 0.5965,-0.5892 0.5963,-0.5798 C 0.596,-0.5705 0.5959,-0.5589 0.5959,-0.5451 L 0.5959,-0.4982 C 0.5959,-0.48 0.5961,-0.4656 0.5964,-0.4551 C 0.5967,-0.4446 0.5972,-0.4369 0.5979,-0.432 C 0.6017,-0.4308 0.6057,-0.43 0.6097,-0.4294 z M 0.5854,-0.6244 C 0.5889,-0.6244 0.5954,-0.6247 0.6049,-0.6253 C 0.6145,-0.6258 0.6221,-0.6261 0.628,-0.6261 C 0.6547,-0.6261 0.6759,-0.6159 0.6915,-0.5954 C 0.7071,-0.575 0.7149,-0.5472 0.7149,-0.512 C 0.7149,-0.4817 0.7084,-0.458 0.6954,-0.4406 C 0.6823,-0.4233 0.6645,-0.4146 0.6417,-0.4146 C 0.6366,-0.4146 0.6279,-0.4153 0.6157,-0.4167 C 0.6036,-0.418 0.5938,-0.4187 0.5865,-0.4187 L 0.5689,-0.4187 C 0.571,-0.4218 0.5725,-0.429 0.5734,-0.4401 C 0.5743,-0.4513 0.5748,-0.4771 0.5748,-0.5175 L 0.5748,-0.5306 C 0.5748,-0.5675 0.5743,-0.5916 0.5734,-0.6028 C 0.5725,-0.6141 0.571,-0.6213 0.5689,-0.6244"
                       id="path123"
                       style="fill:#ffffff;fill-opacity:1;fill-rule:nonzero;stroke:none" /><path
                       d="M 0.8935,-0.4183 L 0.8921,-0.4626 C 0.8885,-0.4513 0.8835,-0.4428 0.8771,-0.4371 C 0.8707,-0.4314 0.8629,-0.4285 0.8538,-0.4285 C 0.836,-0.4285 0.822,-0.4361 0.8119,-0.4513 C 0.8018,-0.4665 0.7967,-0.4875 0.7967,-0.5143 C 0.7967,-0.5419 0.8022,-0.5638 0.8134,-0.5802 C 0.8245,-0.5966 0.8393,-0.6047 0.8579,-0.6047 C 0.8667,-0.6047 0.8749,-0.6025 0.8825,-0.5981 C 0.8902,-0.5938 0.8968,-0.5875 0.9024,-0.5793 C 0.8994,-0.5942 0.8929,-0.6061 0.8828,-0.6151 C 0.8726,-0.624 0.8605,-0.6284 0.8462,-0.6284 C 0.8246,-0.6284 0.8068,-0.6187 0.7929,-0.5991 C 0.779,-0.5795 0.7721,-0.5543 0.7721,-0.5236 C 0.7721,-0.4896 0.7796,-0.4629 0.7945,-0.4436 C 0.8095,-0.4243 0.8301,-0.4146 0.8564,-0.4146 C 0.8606,-0.4146 0.8668,-0.4153 0.875,-0.4165 C 0.8832,-0.4177 0.8894,-0.4183 0.8935,-0.4183"
                       id="path125"
                       style="fill:#ffffff;fill-opacity:1;fill-rule:nonzero;stroke:none" /><g
                       id="g127"><g
                         id="g129"><g
                           id="g135"><path
                             d="M 0.0834,-0.7423 C 0.0887,-0.7423 0.3176,-0.7423 0.3443,-0.7423 C 0.3636,-0.7423 0.3889,-0.7635 0.398,-0.7773 C 0.3988,-0.7783 0.4015,-0.7761 0.4,-0.7746 C 0.3921,-0.7661 0.387,-0.7535 0.387,-0.7395 C 0.387,-0.7254 0.3921,-0.7128 0.4,-0.7043 C 0.4015,-0.7028 0.3988,-0.7006 0.398,-0.7016 C 0.3889,-0.7154 0.3636,-0.7366 0.3443,-0.7366 C 0.3176,-0.7366 0.0887,-0.7366 0.0834,-0.7366 C 0.081,-0.7366 0.081,-0.7423 0.0834,-0.7423"
                             id="path143"
                             style="fill:url(#linearGradient2696);stroke:none" /></g></g></g><g
                       id="g145"><g
                         id="g147"><g
                           id="g153"><path
                             d="M 0.9207,-0.7366 C 0.9149,-0.7366 0.6651,-0.7366 0.636,-0.7366 C 0.6149,-0.7366 0.5873,-0.7154 0.5773,-0.7016 C 0.5764,-0.7006 0.5735,-0.7028 0.5751,-0.7043 C 0.5838,-0.7128 0.5893,-0.7254 0.5893,-0.7395 C 0.5893,-0.7535 0.5838,-0.7661 0.5751,-0.7746 C 0.5735,-0.7761 0.5764,-0.7783 0.5773,-0.7773 C 0.5873,-0.7635 0.6149,-0.7423 0.636,-0.7423 C 0.6651,-0.7423 0.9149,-0.7423 0.9207,-0.7423 C 0.9233,-0.7423 0.9233,-0.7366 0.9207,-0.7366"
                             id="path161"
                             style="fill:url(#linearGradient2698);stroke:none" /></g></g></g><g
                       id="g163"><path
                         d="M 0.4761,-0.7605 L 0.4749,-0.7732 L 0.4838,-0.7658 L 0.4926,-0.7732 L 0.4914,-0.7605 L 0.5014,-0.7553 L 0.4914,-0.7501 L 0.4926,-0.7374 L 0.4838,-0.7449 L 0.4749,-0.7374 L 0.4761,-0.7501 L 0.4661,-0.7553 L 0.4761,-0.7605 z M 0.5425,-0.7862 L 0.5577,-0.7965 L 0.551,-0.8101 L 0.5358,-0.7997 L 0.5386,-0.8119 L 0.5257,-0.816 L 0.5194,-0.7886 L 0.5072,-0.7803 L 0.5142,-0.8173 L 0.4904,-0.7917 L 0.4904,-0.8084 L 0.5074,-0.8284 L 0.498,-0.8395 L 0.4904,-0.8306 L 0.4904,-0.8512 L 0.4771,-0.8512 L 0.4771,-0.8306 L 0.4695,-0.8395 L 0.46,-0.8284 L 0.4771,-0.8084 L 0.4771,-0.7917 L 0.4533,-0.8173 L 0.4603,-0.7803 L 0.448,-0.7886 L 0.4418,-0.816 L 0.4289,-0.8119 L 0.4317,-0.7997 L 0.4164,-0.8101 L 0.4098,-0.7965 L 0.425,-0.7862 L 0.4146,-0.7829 L 0.4181,-0.7677 L 0.4413,-0.7751 L 0.4536,-0.7667 L 0.4229,-0.7554 L 0.4537,-0.744 L 0.4413,-0.7356 L 0.4181,-0.7429 L 0.4146,-0.7278 L 0.425,-0.7245 L 0.4098,-0.7142 L 0.4164,-0.7006 L 0.4317,-0.7109 L 0.4289,-0.6988 L 0.4418,-0.6947 L 0.448,-0.722 L 0.4603,-0.7304 L 0.4533,-0.6934 L 0.4771,-0.719 L 0.4771,-0.7023 L 0.46,-0.6823 L 0.4695,-0.6712 L 0.4771,-0.6801 L 0.4771,-0.6595 L 0.4904,-0.6595 L 0.4904,-0.6801 L 0.498,-0.6712 L 0.5074,-0.6823 L 0.4904,-0.7023 L 0.4904,-0.719 L 0.5142,-0.6933 L 0.5072,-0.7304 L 0.5194,-0.722 L 0.5257,-0.6947 L 0.5386,-0.6988 L 0.5358,-0.7109 L 0.551,-0.7006 L 0.5577,-0.7142 L 0.5425,-0.7245 L 0.5529,-0.7278 L 0.5494,-0.7429 L 0.5261,-0.7356 L 0.5139,-0.7439 L 0.5446,-0.7553 L 0.5138,-0.7667 L 0.5261,-0.7751 L 0.5494,-0.7677 L 0.5529,-0.7829"
                         id="path165"
                         style="fill:#ffffff;fill-opacity:1;fill-rule:nonzero;stroke:none" /><g
                         id="g167"><g
                           id="g169"><g
                             id="g175"><path
                               d="M 0.5599,-0.0982 C 0.3636,-0.0612 0.1767,-0.1866 0.0981,-0.3896 L 0.1062,-0.3896 C 0.1067,-0.388 0.1071,-0.3863 0.1076,-0.3846 C 0.1142,-0.3683 0.1215,-0.3524 0.1296,-0.337 C 0.124,-0.3534 0.12,-0.3703 0.1175,-0.3878 C 0.1171,-0.3883 0.1167,-0.389 0.1163,-0.3896 L 0.1229,-0.3896 C 0.13,-0.38 0.1376,-0.3707 0.1458,-0.3619 C 0.1448,-0.3711 0.1444,-0.3804 0.1444,-0.3896 L 0.1491,-0.3896 C 0.1491,-0.3785 0.1497,-0.3674 0.1511,-0.3563 C 0.1723,-0.3346 0.1966,-0.3157 0.2229,-0.3 C 0.2208,-0.3199 0.2214,-0.34 0.2247,-0.3599 C 0.2129,-0.3693 0.2016,-0.3793 0.1908,-0.3896 L 0.1977,-0.3896 C 0.2066,-0.3813 0.2158,-0.3731 0.2256,-0.3653 C 0.2272,-0.3734 0.2294,-0.3815 0.2318,-0.3896 L 0.2368,-0.3896 C 0.2339,-0.3804 0.2315,-0.3712 0.2298,-0.3619 C 0.2568,-0.3409 0.2871,-0.3219 0.3204,-0.3058 C 0.3231,-0.32 0.3278,-0.3342 0.3344,-0.3479 C 0.3167,-0.361 0.2997,-0.375 0.2835,-0.3896 L 0.2915,-0.3896 C 0.3058,-0.3769 0.3209,-0.3646 0.3368,-0.3529 C 0.3391,-0.3573 0.3416,-0.3617 0.3443,-0.3661 C 0.3493,-0.3743 0.3551,-0.3821 0.3614,-0.3896 L 0.372,-0.3896 C 0.397,-0.3626 0.4233,-0.3374 0.4507,-0.3147 C 0.4559,-0.3205 0.4618,-0.3258 0.4682,-0.3306 C 0.4541,-0.3501 0.4407,-0.3698 0.4278,-0.3896 L 0.4337,-0.3896 C 0.446,-0.3708 0.4588,-0.3521 0.4723,-0.3335 C 0.479,-0.3382 0.4862,-0.3422 0.4938,-0.3456 C 0.488,-0.3589 0.482,-0.3737 0.4758,-0.3896 L 0.4809,-0.3896 C 0.4868,-0.3745 0.4926,-0.3604 0.4982,-0.3476 C 0.506,-0.3507 0.5141,-0.3532 0.5225,-0.3549 L 0.5177,-0.3896 L 0.5225,-0.3896 L 0.5271,-0.3558 C 0.5355,-0.3572 0.544,-0.3579 0.5522,-0.3577 C 0.5536,-0.3678 0.5548,-0.3785 0.556,-0.3896 L 0.5607,-0.3896 C 0.5596,-0.3783 0.5583,-0.3675 0.557,-0.3575 C 0.5651,-0.3571 0.573,-0.3559 0.5806,-0.3539 C 0.5848,-0.3658 0.5887,-0.3777 0.5925,-0.3896 L 0.5976,-0.3896 C 0.5936,-0.3773 0.5895,-0.365 0.5852,-0.3526 C 0.5926,-0.3504 0.5996,-0.3475 0.6062,-0.3439 C 0.6155,-0.3587 0.6244,-0.374 0.633,-0.3896 L 0.6387,-0.3896 C 0.6297,-0.3732 0.6202,-0.357 0.6104,-0.3414 C 0.6146,-0.3389 0.6185,-0.3361 0.6221,-0.333 C 0.6239,-0.3315 0.6255,-0.3299 0.6271,-0.3284 C 0.6462,-0.3482 0.6637,-0.3687 0.6801,-0.3896 L 0.6866,-0.3896 C 0.6691,-0.3671 0.6505,-0.3453 0.6306,-0.3246 C 0.6351,-0.3196 0.639,-0.3142 0.6421,-0.3083 C 0.6741,-0.3303 0.7029,-0.3543 0.7285,-0.3796 C 0.7268,-0.383 0.7249,-0.3864 0.7229,-0.3896 L 0.7287,-0.3896 C 0.7299,-0.3875 0.7311,-0.3854 0.7322,-0.3833 C 0.7343,-0.3854 0.7362,-0.3875 0.7382,-0.3896 L 0.7448,-0.3896 C 0.7413,-0.386 0.738,-0.3823 0.7344,-0.3787 C 0.7402,-0.3662 0.7442,-0.353 0.7464,-0.3392 C 0.767,-0.3542 0.7865,-0.3711 0.8046,-0.3896 L 0.8115,-0.3896 C 0.7917,-0.369 0.7702,-0.35 0.7472,-0.3333 C 0.7488,-0.3198 0.7486,-0.3061 0.7466,-0.2925 C 0.7754,-0.3069 0.8004,-0.3246 0.8216,-0.3437 C 0.8241,-0.359 0.8249,-0.3744 0.8241,-0.3896 L 0.8288,-0.3896 C 0.8295,-0.3761 0.829,-0.3625 0.8272,-0.3489 C 0.841,-0.362 0.8528,-0.3758 0.8631,-0.3896 L 0.8689,-0.3896 C 0.8596,-0.3767 0.8491,-0.3642 0.8376,-0.3524 C 0.834,-0.3488 0.8301,-0.345 0.8259,-0.3413 C 0.8227,-0.3222 0.8169,-0.3033 0.8088,-0.2848 C 0.8268,-0.2995 0.8398,-0.3154 0.849,-0.3294 C 0.8527,-0.3362 0.8563,-0.3431 0.8597,-0.35 C 0.8652,-0.3631 0.8697,-0.3763 0.8731,-0.3896 L 0.885,-0.3896 C 0.8732,-0.3591 0.8588,-0.3298 0.8417,-0.302 C 0.774,-0.1921 0.6739,-0.1197 0.5599,-0.0982 z M 0.6597,-0.167 C 0.6718,-0.1758 0.6829,-0.1857 0.6929,-0.1963 C 0.6721,-0.1961 0.6498,-0.1998 0.6271,-0.2086 C 0.6218,-0.2024 0.6157,-0.1966 0.6091,-0.1915 C 0.6255,-0.1794 0.643,-0.1711 0.6597,-0.167 z M 0.6046,-0.1882 C 0.5979,-0.1834 0.5907,-0.1792 0.5831,-0.1757 C 0.5928,-0.1603 0.6018,-0.1477 0.6106,-0.1393 C 0.6258,-0.1458 0.6402,-0.1537 0.6536,-0.1628 C 0.6374,-0.1675 0.6206,-0.1761 0.6046,-0.1882 z M 0.6979,-0.2018 C 0.7053,-0.2104 0.712,-0.2193 0.7178,-0.2288 C 0.7196,-0.2317 0.7213,-0.2346 0.7229,-0.2375 C 0.6994,-0.232 0.6725,-0.2292 0.6416,-0.2302 C 0.6402,-0.2276 0.6388,-0.225 0.6372,-0.2223 C 0.6352,-0.2191 0.6331,-0.2161 0.6308,-0.2131 C 0.6541,-0.2044 0.6769,-0.2011 0.6979,-0.2018 z M 0.7262,-0.244 C 0.7326,-0.2569 0.7373,-0.2701 0.7402,-0.2834 C 0.7142,-0.2712 0.6842,-0.261 0.6499,-0.255 C 0.6487,-0.2485 0.6468,-0.2421 0.6441,-0.2357 C 0.6755,-0.2348 0.7027,-0.238 0.7262,-0.244 z M 0.7217,-0.2255 C 0.7167,-0.2175 0.711,-0.2097 0.7049,-0.2023 C 0.7261,-0.2041 0.7452,-0.2099 0.7608,-0.2186 C 0.7708,-0.2302 0.7798,-0.2424 0.7878,-0.2553 C 0.7904,-0.2596 0.7929,-0.2639 0.7953,-0.2683 C 0.7773,-0.2564 0.7556,-0.2461 0.7293,-0.2392 C 0.727,-0.2346 0.7244,-0.23 0.7217,-0.2255 z M 0.7075,-0.1693 C 0.7234,-0.181 0.738,-0.194 0.7512,-0.208 C 0.7362,-0.2016 0.7188,-0.1974 0.7,-0.1964 C 0.69,-0.1852 0.6788,-0.1749 0.6665,-0.1656 C 0.6814,-0.163 0.6953,-0.164 0.7068,-0.1688 C 0.707,-0.169 0.7073,-0.1691 0.7075,-0.1693 z M 0.6924,-0.1593 C 0.6824,-0.1579 0.6716,-0.1585 0.6603,-0.161 C 0.6463,-0.1511 0.6311,-0.1425 0.615,-0.1354 C 0.6204,-0.1311 0.6257,-0.1285 0.631,-0.1278 C 0.6522,-0.1364 0.6728,-0.1469 0.6924,-0.1593 z M 0.561,-0.1069 C 0.5821,-0.111 0.6027,-0.1169 0.6227,-0.1245 C 0.6183,-0.1263 0.614,-0.1292 0.6098,-0.1331 C 0.5938,-0.1264 0.5769,-0.1213 0.5596,-0.1178 L 0.561,-0.1069 z M 0.6055,-0.1372 C 0.5968,-0.1461 0.5879,-0.1586 0.5785,-0.1737 C 0.5703,-0.1703 0.5618,-0.1676 0.553,-0.1658 L 0.5588,-0.1233 C 0.5749,-0.1265 0.5905,-0.1311 0.6055,-0.1372 z M 0.3365,-0.2137 C 0.3656,-0.2112 0.397,-0.2127 0.4303,-0.2192 C 0.4279,-0.225 0.4261,-0.2312 0.4251,-0.2376 C 0.3919,-0.2377 0.3577,-0.2424 0.3244,-0.2514 C 0.3267,-0.2382 0.3308,-0.2256 0.3365,-0.2137 z M 0.3337,-0.2085 C 0.3006,-0.2117 0.2723,-0.2195 0.2494,-0.2286 C 0.2583,-0.2115 0.2698,-0.1955 0.2835,-0.181 C 0.3041,-0.1751 0.3285,-0.1722 0.3569,-0.1749 C 0.3476,-0.1851 0.3399,-0.1964 0.3337,-0.2085 z M 0.3394,-0.208 C 0.3456,-0.1964 0.3536,-0.1855 0.3631,-0.1756 C 0.387,-0.1785 0.4138,-0.1855 0.4434,-0.1979 C 0.4392,-0.2029 0.4356,-0.2083 0.4327,-0.2141 C 0.3985,-0.2072 0.3673,-0.2059 0.3394,-0.208 z M 0.368,-0.1707 C 0.3703,-0.1685 0.3727,-0.1663 0.3751,-0.1642 C 0.3832,-0.1574 0.3919,-0.1513 0.4012,-0.1459 C 0.4214,-0.1529 0.4423,-0.1645 0.4621,-0.1813 C 0.4567,-0.185 0.4517,-0.1891 0.4473,-0.1937 C 0.4182,-0.1812 0.3918,-0.174 0.368,-0.1707 z M 0.4075,-0.1425 C 0.4198,-0.1361 0.433,-0.1308 0.4468,-0.1269 C 0.4616,-0.1369 0.476,-0.1512 0.4884,-0.1687 C 0.4807,-0.1712 0.4735,-0.1744 0.4668,-0.1784 C 0.4475,-0.1617 0.4273,-0.15 0.4075,-0.1425 z M 0.4538,-0.1251 C 0.4689,-0.1214 0.4847,-0.1192 0.5009,-0.1186 C 0.5069,-0.1299 0.5121,-0.1451 0.5173,-0.1633 C 0.5091,-0.1638 0.5011,-0.1652 0.4935,-0.1672 C 0.4815,-0.1499 0.4679,-0.1355 0.4538,-0.1251 z M 0.5063,-0.1184 C 0.522,-0.1182 0.5381,-0.1196 0.5542,-0.1224 L 0.5484,-0.1649 C 0.5395,-0.1634 0.5307,-0.1628 0.5222,-0.163 C 0.5172,-0.1453 0.5122,-0.1301 0.5063,-0.1184 z M 0.5564,-0.106 L 0.5549,-0.1169 C 0.5373,-0.1138 0.52,-0.1125 0.5033,-0.1129 C 0.5002,-0.1077 0.4969,-0.1034 0.4933,-0.1001 C 0.5143,-0.1002 0.5353,-0.1022 0.5564,-0.106 z M 0.4845,-0.1002 C 0.4894,-0.1028 0.4937,-0.1072 0.4976,-0.1132 C 0.4803,-0.114 0.4636,-0.1167 0.4478,-0.121 C 0.4378,-0.1144 0.4276,-0.1099 0.4178,-0.1075 C 0.4398,-0.103 0.462,-0.1006 0.4845,-0.1002 z M 0.4007,-0.1115 C 0.401,-0.1114 0.4012,-0.1114 0.4015,-0.1113 C 0.4137,-0.1109 0.4272,-0.1151 0.4407,-0.1231 C 0.4265,-0.1274 0.4132,-0.1332 0.4009,-0.1401 C 0.3827,-0.134 0.365,-0.1316 0.3489,-0.1322 C 0.3652,-0.1238 0.3826,-0.1168 0.4007,-0.1115 z M 0.3945,-0.1439 C 0.3824,-0.1514 0.3713,-0.16 0.3616,-0.1699 C 0.3347,-0.1668 0.3113,-0.1686 0.2911,-0.1734 C 0.2945,-0.17 0.298,-0.1668 0.3016,-0.1637 C 0.3126,-0.1544 0.3244,-0.1462 0.337,-0.1388 C 0.3542,-0.1363 0.3739,-0.1377 0.3945,-0.1439 z M 0.3175,-0.1438 C 0.3189,-0.1433 0.3203,-0.1427 0.3218,-0.1422 C 0.307,-0.1521 0.2935,-0.1634 0.2816,-0.1758 C 0.2703,-0.1791 0.2601,-0.1833 0.251,-0.1879 C 0.2723,-0.1708 0.2944,-0.156 0.3175,-0.1438 z M 0.2081,-0.2273 C 0.2131,-0.222 0.2182,-0.217 0.2235,-0.212 C 0.2359,-0.2019 0.2527,-0.1914 0.2741,-0.184 C 0.2616,-0.1984 0.2509,-0.2142 0.2426,-0.2314 C 0.2377,-0.2334 0.233,-0.2356 0.2286,-0.2377 C 0.2111,-0.2463 0.1947,-0.2567 0.1801,-0.2681 C 0.1881,-0.2538 0.1974,-0.2401 0.2081,-0.2273 z M 0.1774,-0.263 C 0.1749,-0.2673 0.1726,-0.2717 0.1705,-0.2761 C 0.1676,-0.2786 0.1648,-0.2812 0.162,-0.2838 C 0.167,-0.2767 0.1721,-0.2697 0.1774,-0.263 z M 0.1468,-0.3529 C 0.1389,-0.361 0.131,-0.3699 0.1237,-0.3795 C 0.1281,-0.354 0.1361,-0.3295 0.1477,-0.3065 C 0.1529,-0.3001 0.1587,-0.2936 0.1653,-0.2873 C 0.1562,-0.3082 0.15,-0.3302 0.1468,-0.3529 z M 0.2238,-0.2933 C 0.2173,-0.2971 0.2109,-0.3009 0.2047,-0.305 C 0.188,-0.3161 0.17,-0.3301 0.1525,-0.3471 C 0.1565,-0.3234 0.1639,-0.3005 0.1745,-0.279 C 0.1924,-0.2636 0.2142,-0.2494 0.2395,-0.2382 C 0.2319,-0.2554 0.2265,-0.2738 0.2238,-0.2933 z M 0.229,-0.3566 C 0.2259,-0.3367 0.2255,-0.3167 0.228,-0.2969 C 0.2565,-0.2805 0.2872,-0.2677 0.3186,-0.2586 C 0.317,-0.2725 0.3173,-0.2866 0.3195,-0.3006 C 0.2871,-0.3163 0.2567,-0.3351 0.229,-0.3566 z M 0.3194,-0.2528 C 0.288,-0.2617 0.2574,-0.2743 0.229,-0.2902 C 0.2321,-0.271 0.2378,-0.2527 0.246,-0.2354 C 0.2713,-0.2249 0.2997,-0.2174 0.3309,-0.2142 C 0.3254,-0.2263 0.3215,-0.2392 0.3194,-0.2528 z M 0.3235,-0.2572 C 0.357,-0.2481 0.3912,-0.2433 0.4245,-0.2432 C 0.424,-0.2495 0.4241,-0.2559 0.425,-0.2622 C 0.3897,-0.2711 0.3559,-0.2833 0.324,-0.2984 C 0.3219,-0.2846 0.3218,-0.2709 0.3235,-0.2572 z M 0.3248,-0.3037 C 0.3559,-0.289 0.3897,-0.2768 0.426,-0.2677 C 0.4274,-0.2743 0.4296,-0.2809 0.4325,-0.2873 C 0.3995,-0.3041 0.368,-0.3235 0.3384,-0.345 C 0.332,-0.3315 0.3274,-0.3176 0.3248,-0.3037 z M 0.3665,-0.388 C 0.3597,-0.38 0.3535,-0.3716 0.3481,-0.3628 C 0.3454,-0.3585 0.343,-0.3542 0.3408,-0.3499 C 0.3697,-0.3287 0.4011,-0.3093 0.4348,-0.2922 C 0.4359,-0.2943 0.4371,-0.2963 0.4384,-0.2984 C 0.441,-0.3027 0.444,-0.3068 0.4473,-0.3107 C 0.4192,-0.3342 0.3921,-0.36 0.3665,-0.388 z M 0.6437,-0.2803 C 0.6372,-0.3282 0.5843,-0.3582 0.5259,-0.3472 C 0.4914,-0.3407 0.4608,-0.3206 0.4441,-0.2935 C 0.4337,-0.2766 0.4294,-0.2582 0.4318,-0.2404 C 0.4343,-0.2226 0.4432,-0.2067 0.4576,-0.1945 C 0.4806,-0.1749 0.515,-0.167 0.5496,-0.1735 C 0.5842,-0.1801 0.6148,-0.2001 0.6315,-0.2272 C 0.6419,-0.2442 0.6461,-0.2625 0.6437,-0.2803 z M 0.7307,-0.3749 C 0.7044,-0.3489 0.6755,-0.3249 0.6444,-0.3036 C 0.647,-0.2979 0.6488,-0.2919 0.65,-0.2856 C 0.6815,-0.2979 0.7127,-0.315 0.7421,-0.3361 C 0.7402,-0.3498 0.7363,-0.3628 0.7307,-0.3749 z M 0.7428,-0.3302 C 0.7136,-0.3094 0.6824,-0.2924 0.6508,-0.2801 C 0.6516,-0.2737 0.6516,-0.2672 0.6508,-0.2608 C 0.6842,-0.2668 0.7144,-0.277 0.7414,-0.2899 C 0.7437,-0.3033 0.7442,-0.3168 0.7428,-0.3302 z M 0.8202,-0.336 C 0.8008,-0.319 0.7761,-0.3012 0.7456,-0.2861 C 0.743,-0.2725 0.7386,-0.2589 0.7325,-0.2457 C 0.7601,-0.2535 0.7824,-0.2652 0.8004,-0.2783 C 0.8096,-0.2972 0.8162,-0.3165 0.8202,-0.336 z M 0.8039,-0.2744 C 0.8002,-0.2668 0.7961,-0.2594 0.7916,-0.2521 C 0.7864,-0.2437 0.7807,-0.2356 0.7747,-0.2277 C 0.7758,-0.2285 0.7768,-0.2294 0.7778,-0.2303 C 0.7964,-0.2504 0.8136,-0.2725 0.8293,-0.2966 C 0.822,-0.2891 0.8136,-0.2815 0.8039,-0.2744"
                               id="path183"
                               style="fill:url(#linearGradient2700);stroke:none" /></g></g></g></g></g></g></g></g></g></g></g></g></g></svg>